<mxfile host="65bd71144e">
    <diagram id="lOYIZA3d3fUGrpe1oG6E" name="Page-1">
        <mxGraphModel dx="1075" dy="860" grid="1" gridSize="10" guides="1" tooltips="1" connect="1" arrows="1" fold="1" page="1" pageScale="1" pageWidth="850" pageHeight="1100" math="0" shadow="0">
            <root>
                <mxCell id="0"/>
                <mxCell id="1" parent="0"/>
                <mxCell id="2" value="" style="rounded=0;whiteSpace=wrap;html=1;" parent="1" vertex="1">
                    <mxGeometry width="820" height="330" as="geometry"/>
                </mxCell>
                <mxCell id="7" style="edgeStyle=none;html=1;" parent="1" edge="1">
                    <mxGeometry relative="1" as="geometry">
                        <mxPoint x="120" y="118" as="sourcePoint"/>
                        <mxPoint x="590" y="118" as="targetPoint"/>
                        <Array as="points">
                            <mxPoint x="200" y="118"/>
                            <mxPoint x="430" y="118"/>
                            <mxPoint x="590" y="118"/>
                        </Array>
                    </mxGeometry>
                </mxCell>
                <mxCell id="8" value="create account" style="edgeLabel;html=1;align=center;verticalAlign=middle;resizable=0;points=[];" parent="7" vertex="1" connectable="0">
                    <mxGeometry x="-0.1827" y="-1" relative="1" as="geometry">
                        <mxPoint x="-125" y="-19" as="offset"/>
                    </mxGeometry>
                </mxCell>
                <mxCell id="23" value="https://pro-alpha.whalefin.com/register" style="edgeLabel;html=1;align=center;verticalAlign=middle;resizable=0;points=[];" parent="7" vertex="1" connectable="0">
                    <mxGeometry x="0.8256" y="-1" relative="1" as="geometry">
                        <mxPoint x="-169" y="-19" as="offset"/>
                    </mxGeometry>
                </mxCell>
                <mxCell id="3" value="bitso_agent" style="shape=umlActor;verticalLabelPosition=bottom;verticalAlign=top;html=1;outlineConnect=0;" parent="1" vertex="1">
                    <mxGeometry x="50" y="140" width="30" height="60" as="geometry"/>
                </mxCell>
                <mxCell id="4" value="" style="group" parent="1" vertex="1" connectable="0">
                    <mxGeometry x="600.0023144104804" y="122.5625396825398" width="173.6244541484716" height="84.86507936507937" as="geometry"/>
                </mxCell>
                <mxCell id="5" value="Whalefin Portal" style="rounded=0;whiteSpace=wrap;html=1;" parent="4" vertex="1">
                    <mxGeometry x="24.803493449781655" y="24.960317460317462" width="148.82096069868993" height="59.904761904761905" as="geometry"/>
                </mxCell>
                <mxCell id="6" value="" style="shadow=0;dashed=0;html=1;strokeColor=none;fillColor=#4495D1;labelPosition=center;verticalLabelPosition=bottom;verticalAlign=top;align=center;outlineConnect=0;shape=mxgraph.veeam.portal_admin;" parent="4" vertex="1">
                    <mxGeometry width="55.06375545851528" height="48.72253968253968" as="geometry"/>
                </mxCell>
                <mxCell id="19" style="edgeStyle=none;html=1;startArrow=none;startFill=0;endArrow=none;endFill=0;exitX=0.045;exitY=0.648;exitDx=0;exitDy=0;entryX=0.146;entryY=0.621;entryDx=0;entryDy=0;entryPerimeter=0;exitPerimeter=0;" parent="1" source="10" target="2" edge="1">
                    <mxGeometry relative="1" as="geometry">
                        <mxPoint x="350" y="202.5" as="sourcePoint"/>
                        <mxPoint x="130" y="205" as="targetPoint"/>
                    </mxGeometry>
                </mxCell>
                <mxCell id="20" value="create API key" style="edgeLabel;html=1;align=center;verticalAlign=middle;resizable=0;points=[];" parent="19" vertex="1" connectable="0">
                    <mxGeometry x="-0.4332" y="-2" relative="1" as="geometry">
                        <mxPoint x="-45" y="-11" as="offset"/>
                    </mxGeometry>
                </mxCell>
                <mxCell id="26" style="edgeStyle=none;html=1;entryX=0.72;entryY=0.616;entryDx=0;entryDy=0;entryPerimeter=0;startArrow=none;startFill=0;endArrow=classic;endFill=1;exitX=0.992;exitY=0.642;exitDx=0;exitDy=0;exitPerimeter=0;" parent="1" source="10" target="2" edge="1">
                    <mxGeometry relative="1" as="geometry"/>
                </mxCell>
                <mxCell id="27" value="&lt;span&gt;https://pro-alpha.whalefin.com/userCenter/apiSetting&lt;/span&gt;" style="edgeLabel;html=1;align=center;verticalAlign=middle;resizable=0;points=[];" parent="26" vertex="1" connectable="0">
                    <mxGeometry x="0.1831" y="-1" relative="1" as="geometry">
                        <mxPoint x="-43" y="-14" as="offset"/>
                    </mxGeometry>
                </mxCell>
                <mxCell id="10" value="" style="rounded=0;whiteSpace=wrap;html=1;dashed=1;" parent="1" vertex="1">
                    <mxGeometry x="260" y="30" width="15.43" height="270" as="geometry"/>
                </mxCell>
                <mxCell id="14" style="edgeStyle=none;html=1;entryX=0.141;entryY=0.47;entryDx=0;entryDy=0;endArrow=classic;endFill=1;dashed=1;entryPerimeter=0;" parent="1" target="2" edge="1">
                    <mxGeometry relative="1" as="geometry">
                        <mxPoint x="590" y="155" as="sourcePoint"/>
                        <mxPoint x="328.5" y="154.94999999999982" as="targetPoint"/>
                        <Array as="points">
                            <mxPoint x="590" y="155"/>
                            <mxPoint x="340" y="155"/>
                            <mxPoint x="210" y="155"/>
                            <mxPoint x="150" y="155"/>
                        </Array>
                    </mxGeometry>
                </mxCell>
            </root>
        </mxGraphModel>
    </diagram>
</mxfile>